<?xml version="1.0" standalone="no"?>
<!DOCTYPE svg PUBLIC "-//W3C//DTD SVG 20010904//EN"
 "http://www.w3.org/TR/2001/REC-SVG-20010904/DTD/svg10.dtd">
<svg version="1.0" xmlns="http://www.w3.org/2000/svg"
 width="512.000000pt" height="512.000000pt" viewBox="0 0 512.000000 512.000000"
 preserveAspectRatio="xMidYMid meet">
<metadata>
Created by potrace 1.14, written by Peter Selinger 2001-2017
</metadata>
<g transform="translate(0.000000,512.000000) scale(0.100000,-0.100000)"
fill="#000000" stroke="none">
<path d="M0 2560 l0 -2560 2560 0 2560 0 0 2560 0 2560 -2560 0 -2560 0 0
-2560z m4049 1713 c111 -45 180 -114 223 -221 l23 -57 3 -1400 c2 -1020 0
-1416 -8 -1460 -30 -155 -143 -271 -298 -304 -75 -16 -2789 -16 -2864 0 -155
33 -268 148 -298 304 -8 44 -10 446 -8 1465 l3 1405 32 67 c54 114 154 193
275 217 24 5 678 8 1453 8 l1410 -2 54 -22z"/>
<path d="M2863 3618 l-103 -103 132 -133 c99 -100 130 -137 123 -147 -6 -8
-65 -72 -132 -143 l-122 -128 97 -97 c54 -53 101 -97 105 -97 4 0 18 10 30 23
13 12 73 71 134 131 l111 109 132 -129 c72 -71 134 -130 138 -132 4 -1 52 43
107 98 l100 100 -135 135 -135 135 60 62 c33 34 93 96 133 137 l72 75 -97 98
c-54 54 -102 98 -108 98 -6 0 -69 -59 -140 -130 l-130 -130 -135 135 -135 135
-102 -102z"/>
<path d="M1450 3245 l0 -145 485 0 486 0 -3 143 -3 142 -482 3 -483 2 0 -145z"/>
<path d="M1790 2275 l0 -195 -192 -2 -193 -3 -3 -142 -3 -143 193 -2 193 -3 3
-193 2 -193 143 3 142 3 3 193 2 192 190 0 191 0 -3 143 -3 142 -187 3 -188 2
0 179 c0 99 -3 186 -6 195 -5 14 -28 16 -145 16 l-139 0 0 -195z"/>
<path d="M2760 2175 l0 -145 480 0 481 0 -3 143 -3 142 -477 3 -478 2 0 -145z"/>
<path d="M2760 1695 l0 -145 480 0 481 0 -3 143 -3 142 -477 3 -478 2 0 -145z"/>
</g>
</svg>
